<svg xmlns="http://www.w3.org/2000/svg" class="loading" width="500" height="500" viewBox="0 0 500 500"><path d="M137.78 362.22c-61.975 0-112.214-50.24-112.214-112.217 0-123.954 100.478-224.432 224.43-224.432 123.955 0 224.433 100.48 224.433 224.436 0-61.977-50.24-112.216-112.22-112.216s-112.216 50.24-112.216 112.215c0 61.976-50.24 112.216-112.216 112.216M249.998 500c138.074 0 249.997-111.93 249.997-249.997 0-138.075-111.924-249.998-250-249.998C111.93.005 0 111.928 0 250.003 0 388.07 111.93 500 249.997 500" fill-rule="evenodd"/></svg>